<mxfile host="app.diagrams.net" modified="2023-05-04T08:34:50.499Z" agent="Mozilla/5.0 (X11; Linux x86_64) AppleWebKit/537.36 (KHTML, like Gecko) Chrome/112.0.0.0 Safari/537.36" etag="6BzsvHq1raofjD6qSVt0" version="21.2.3" type="device">
  <diagram name="Page-1" id="Sa7c_cHf9nSiS1USPNtQ">
    <mxGraphModel dx="1434" dy="893" grid="1" gridSize="10" guides="1" tooltips="1" connect="1" arrows="1" fold="1" page="1" pageScale="1" pageWidth="850" pageHeight="1100" math="0" shadow="0">
      <root>
        <mxCell id="0" />
        <mxCell id="1" parent="0" />
        <mxCell id="mzUeTdwMemoc4BiHLvL5-28" value="" style="rounded=0;whiteSpace=wrap;html=1;fillColor=#dae8fc;strokeColor=#6c8ebf;" vertex="1" parent="1">
          <mxGeometry x="200" y="470" width="630" height="180" as="geometry" />
        </mxCell>
        <mxCell id="mzUeTdwMemoc4BiHLvL5-14" value="" style="rounded=0;whiteSpace=wrap;html=1;fillColor=#fff2cc;strokeColor=#d6b656;" vertex="1" parent="1">
          <mxGeometry x="200" y="260" width="630" height="180" as="geometry" />
        </mxCell>
        <mxCell id="mzUeTdwMemoc4BiHLvL5-2" value="" style="rounded=0;whiteSpace=wrap;html=1;fillColor=#d5e8d4;strokeColor=#82b366;" vertex="1" parent="1">
          <mxGeometry x="200" y="70" width="630" height="160" as="geometry" />
        </mxCell>
        <mxCell id="mzUeTdwMemoc4BiHLvL5-5" style="edgeStyle=orthogonalEdgeStyle;rounded=0;orthogonalLoop=1;jettySize=auto;html=1;exitX=0.875;exitY=0.5;exitDx=0;exitDy=0;exitPerimeter=0;" edge="1" parent="1" source="mzUeTdwMemoc4BiHLvL5-1" target="mzUeTdwMemoc4BiHLvL5-4">
          <mxGeometry relative="1" as="geometry" />
        </mxCell>
        <mxCell id="mzUeTdwMemoc4BiHLvL5-1" value="&lt;b style=&quot;font-size: 15px;&quot;&gt;JetBrains&lt;br style=&quot;font-size: 15px;&quot;&gt;&lt;/b&gt;&lt;br style=&quot;font-size: 15px;&quot;&gt;10 M Notebooks&lt;br style=&quot;font-size: 15px;&quot;&gt;Dataset" style="ellipse;shape=cloud;whiteSpace=wrap;html=1;fontSize=15;" vertex="1" parent="1">
          <mxGeometry x="10" y="105" width="165" height="110" as="geometry" />
        </mxCell>
        <mxCell id="mzUeTdwMemoc4BiHLvL5-3" value="&lt;i style=&quot;font-size: 15px;&quot;&gt;Collection and Filtering Stage&lt;/i&gt;" style="text;html=1;strokeColor=none;fillColor=none;align=left;verticalAlign=middle;whiteSpace=wrap;rounded=0;fontSize=15;fontStyle=1" vertex="1" parent="1">
          <mxGeometry x="201" y="70" width="290" height="30" as="geometry" />
        </mxCell>
        <mxCell id="mzUeTdwMemoc4BiHLvL5-7" style="edgeStyle=orthogonalEdgeStyle;rounded=0;orthogonalLoop=1;jettySize=auto;html=1;exitX=1;exitY=0.5;exitDx=0;exitDy=0;" edge="1" parent="1" source="mzUeTdwMemoc4BiHLvL5-4" target="mzUeTdwMemoc4BiHLvL5-6">
          <mxGeometry relative="1" as="geometry" />
        </mxCell>
        <mxCell id="mzUeTdwMemoc4BiHLvL5-32" style="edgeStyle=orthogonalEdgeStyle;rounded=0;orthogonalLoop=1;jettySize=auto;html=1;exitX=0.5;exitY=1;exitDx=0;exitDy=0;entryX=0;entryY=0.5;entryDx=0;entryDy=0;fontStyle=1;strokeWidth=2;" edge="1" parent="1" source="mzUeTdwMemoc4BiHLvL5-4" target="mzUeTdwMemoc4BiHLvL5-31">
          <mxGeometry relative="1" as="geometry">
            <Array as="points">
              <mxPoint x="300" y="240" />
              <mxPoint x="180" y="240" />
              <mxPoint x="180" y="570" />
            </Array>
          </mxGeometry>
        </mxCell>
        <mxCell id="mzUeTdwMemoc4BiHLvL5-4" value="100000 Notebooks&lt;br style=&quot;font-size: 16px;&quot;&gt;chosen randomly" style="rounded=0;whiteSpace=wrap;html=1;fontSize=16;" vertex="1" parent="1">
          <mxGeometry x="220" y="130" width="160" height="60" as="geometry" />
        </mxCell>
        <mxCell id="mzUeTdwMemoc4BiHLvL5-10" style="edgeStyle=orthogonalEdgeStyle;rounded=0;orthogonalLoop=1;jettySize=auto;html=1;exitX=1;exitY=0.5;exitDx=0;exitDy=0;entryX=0;entryY=0.5;entryDx=0;entryDy=0;" edge="1" parent="1" source="mzUeTdwMemoc4BiHLvL5-6" target="mzUeTdwMemoc4BiHLvL5-9">
          <mxGeometry relative="1" as="geometry" />
        </mxCell>
        <mxCell id="mzUeTdwMemoc4BiHLvL5-6" value="Notebook Validity Check&lt;br&gt;(&lt;b&gt;99441&lt;/b&gt; notebooks)" style="rounded=1;whiteSpace=wrap;html=1;fontSize=15;" vertex="1" parent="1">
          <mxGeometry x="460" y="130" width="156" height="60" as="geometry" />
        </mxCell>
        <mxCell id="mzUeTdwMemoc4BiHLvL5-8" value="&lt;pre&gt;nbformat&lt;/pre&gt;" style="text;html=1;strokeColor=none;fillColor=none;align=center;verticalAlign=middle;whiteSpace=wrap;rounded=0;fontStyle=1" vertex="1" parent="1">
          <mxGeometry x="388" y="135" width="60" height="30" as="geometry" />
        </mxCell>
        <mxCell id="mzUeTdwMemoc4BiHLvL5-12" style="edgeStyle=orthogonalEdgeStyle;rounded=0;orthogonalLoop=1;jettySize=auto;html=1;exitX=1;exitY=0.5;exitDx=0;exitDy=0;entryX=0;entryY=0.5;entryDx=0;entryDy=0;" edge="1" parent="1" source="mzUeTdwMemoc4BiHLvL5-9" target="mzUeTdwMemoc4BiHLvL5-11">
          <mxGeometry relative="1" as="geometry" />
        </mxCell>
        <mxCell id="mzUeTdwMemoc4BiHLvL5-9" value="" style="triangle;whiteSpace=wrap;html=1;" vertex="1" parent="1">
          <mxGeometry x="650" y="142.5" width="26.25" height="35" as="geometry" />
        </mxCell>
        <mxCell id="mzUeTdwMemoc4BiHLvL5-19" style="edgeStyle=orthogonalEdgeStyle;rounded=0;orthogonalLoop=1;jettySize=auto;html=1;exitX=0.5;exitY=1;exitDx=0;exitDy=0;entryX=1;entryY=0.5;entryDx=0;entryDy=0;strokeWidth=2;" edge="1" parent="1" source="mzUeTdwMemoc4BiHLvL5-11" target="mzUeTdwMemoc4BiHLvL5-18">
          <mxGeometry relative="1" as="geometry" />
        </mxCell>
        <mxCell id="mzUeTdwMemoc4BiHLvL5-11" value="&lt;b&gt;92050&lt;/b&gt; Python Notebooks" style="rounded=0;whiteSpace=wrap;html=1;fontSize=16;" vertex="1" parent="1">
          <mxGeometry x="720" y="100" width="100" height="120" as="geometry" />
        </mxCell>
        <mxCell id="mzUeTdwMemoc4BiHLvL5-13" value="Filter for python" style="text;html=1;strokeColor=none;fillColor=none;align=center;verticalAlign=middle;whiteSpace=wrap;rounded=0;fontSize=14;fontStyle=1" vertex="1" parent="1">
          <mxGeometry x="633" y="108" width="60" height="30" as="geometry" />
        </mxCell>
        <mxCell id="mzUeTdwMemoc4BiHLvL5-15" value="&lt;i style=&quot;font-size: 15px;&quot;&gt;Extracting Data Representations&lt;/i&gt;" style="text;html=1;strokeColor=none;fillColor=none;align=left;verticalAlign=middle;whiteSpace=wrap;rounded=0;fontSize=15;fontStyle=1" vertex="1" parent="1">
          <mxGeometry x="201" y="260" width="290" height="30" as="geometry" />
        </mxCell>
        <mxCell id="mzUeTdwMemoc4BiHLvL5-16" value="Code Cells and Source Code" style="rounded=0;whiteSpace=wrap;html=1;fontSize=16;" vertex="1" parent="1">
          <mxGeometry x="616" y="272" width="120" height="60" as="geometry" />
        </mxCell>
        <mxCell id="mzUeTdwMemoc4BiHLvL5-17" style="edgeStyle=orthogonalEdgeStyle;rounded=0;orthogonalLoop=1;jettySize=auto;html=1;exitX=0.5;exitY=1;exitDx=0;exitDy=0;entryX=1;entryY=0.5;entryDx=0;entryDy=0;strokeWidth=2;" edge="1" parent="1" source="mzUeTdwMemoc4BiHLvL5-11" target="mzUeTdwMemoc4BiHLvL5-16">
          <mxGeometry relative="1" as="geometry" />
        </mxCell>
        <mxCell id="mzUeTdwMemoc4BiHLvL5-21" style="edgeStyle=orthogonalEdgeStyle;rounded=0;orthogonalLoop=1;jettySize=auto;html=1;exitX=0;exitY=0.5;exitDx=0;exitDy=0;" edge="1" parent="1" source="mzUeTdwMemoc4BiHLvL5-18" target="mzUeTdwMemoc4BiHLvL5-20">
          <mxGeometry relative="1" as="geometry">
            <Array as="points">
              <mxPoint x="590" y="400" />
              <mxPoint x="590" y="323" />
            </Array>
          </mxGeometry>
        </mxCell>
        <mxCell id="mzUeTdwMemoc4BiHLvL5-23" style="edgeStyle=orthogonalEdgeStyle;rounded=0;orthogonalLoop=1;jettySize=auto;html=1;exitX=0;exitY=0.5;exitDx=0;exitDy=0;entryX=1;entryY=0.5;entryDx=0;entryDy=0;" edge="1" parent="1" source="mzUeTdwMemoc4BiHLvL5-18" target="mzUeTdwMemoc4BiHLvL5-22">
          <mxGeometry relative="1" as="geometry" />
        </mxCell>
        <mxCell id="mzUeTdwMemoc4BiHLvL5-18" value="&lt;font style=&quot;font-size: 12px;&quot;&gt;Code Cells with Image Outputs &lt;br&gt;(&lt;b&gt;39540&lt;/b&gt; Notebooks)&lt;/font&gt;" style="rounded=0;whiteSpace=wrap;html=1;fontSize=16;" vertex="1" parent="1">
          <mxGeometry x="616" y="370" width="120" height="60" as="geometry" />
        </mxCell>
        <mxCell id="mzUeTdwMemoc4BiHLvL5-26" style="edgeStyle=orthogonalEdgeStyle;rounded=0;orthogonalLoop=1;jettySize=auto;html=1;exitX=0;exitY=0.5;exitDx=0;exitDy=0;entryX=1;entryY=0.5;entryDx=0;entryDy=0;" edge="1" parent="1" source="mzUeTdwMemoc4BiHLvL5-20" target="mzUeTdwMemoc4BiHLvL5-24">
          <mxGeometry relative="1" as="geometry" />
        </mxCell>
        <mxCell id="mzUeTdwMemoc4BiHLvL5-27" style="edgeStyle=orthogonalEdgeStyle;rounded=0;orthogonalLoop=1;jettySize=auto;html=1;exitX=0;exitY=0.5;exitDx=0;exitDy=0;entryX=1;entryY=0.5;entryDx=0;entryDy=0;" edge="1" parent="1" source="mzUeTdwMemoc4BiHLvL5-20" target="mzUeTdwMemoc4BiHLvL5-25">
          <mxGeometry relative="1" as="geometry" />
        </mxCell>
        <mxCell id="mzUeTdwMemoc4BiHLvL5-20" value="&lt;font style=&quot;font-size: 14px;&quot;&gt;Extract Output Figures&lt;br&gt;(&lt;b&gt;342722&lt;/b&gt; Images)&lt;/font&gt;" style="rounded=0;whiteSpace=wrap;html=1;fontSize=16;" vertex="1" parent="1">
          <mxGeometry x="448" y="293" width="120" height="60" as="geometry" />
        </mxCell>
        <mxCell id="mzUeTdwMemoc4BiHLvL5-22" value="&lt;span style=&quot;font-size: 14px;&quot;&gt;Analyze Source Code&lt;/span&gt;" style="rounded=0;whiteSpace=wrap;html=1;fontSize=16;" vertex="1" parent="1">
          <mxGeometry x="448" y="370" width="120" height="60" as="geometry" />
        </mxCell>
        <mxCell id="mzUeTdwMemoc4BiHLvL5-24" value="&lt;font style=&quot;font-size: 14px;&quot;&gt;Extract Output Types&lt;br&gt;(&lt;b&gt;34&lt;/b&gt; MIME Types)&lt;/font&gt;" style="rounded=0;whiteSpace=wrap;html=1;fontSize=16;" vertex="1" parent="1">
          <mxGeometry x="220" y="293" width="180" height="60" as="geometry" />
        </mxCell>
        <mxCell id="mzUeTdwMemoc4BiHLvL5-25" value="&lt;span style=&quot;font-size: 14px;&quot;&gt;Classify Figure Types&lt;br&gt;&lt;/span&gt;(&lt;b&gt;28&lt;/b&gt; categories)" style="rounded=0;whiteSpace=wrap;html=1;fontSize=16;" vertex="1" parent="1">
          <mxGeometry x="220" y="370" width="180" height="60" as="geometry" />
        </mxCell>
        <mxCell id="mzUeTdwMemoc4BiHLvL5-29" value="&lt;i style=&quot;font-size: 15px;&quot;&gt;Data Enrichment&lt;/i&gt;" style="text;html=1;strokeColor=none;fillColor=none;align=left;verticalAlign=middle;whiteSpace=wrap;rounded=0;fontSize=15;fontStyle=1" vertex="1" parent="1">
          <mxGeometry x="200" y="470" width="140" height="30" as="geometry" />
        </mxCell>
        <mxCell id="mzUeTdwMemoc4BiHLvL5-45" style="edgeStyle=orthogonalEdgeStyle;rounded=0;orthogonalLoop=1;jettySize=auto;html=1;exitX=1;exitY=0.75;exitDx=0;exitDy=0;entryX=0;entryY=0.5;entryDx=0;entryDy=0;" edge="1" parent="1" source="mzUeTdwMemoc4BiHLvL5-31" target="mzUeTdwMemoc4BiHLvL5-46">
          <mxGeometry relative="1" as="geometry">
            <mxPoint x="358" y="605" as="targetPoint" />
          </mxGeometry>
        </mxCell>
        <mxCell id="mzUeTdwMemoc4BiHLvL5-31" value="Generate HTML from Notebooks" style="rounded=0;whiteSpace=wrap;html=1;fontSize=16;" vertex="1" parent="1">
          <mxGeometry x="220" y="510" width="100" height="120" as="geometry" />
        </mxCell>
        <mxCell id="mzUeTdwMemoc4BiHLvL5-33" value="&lt;pre&gt;nbconvert&lt;/pre&gt;" style="text;html=1;strokeColor=none;fillColor=none;align=center;verticalAlign=middle;whiteSpace=wrap;rounded=0;fontStyle=1" vertex="1" parent="1">
          <mxGeometry x="107" y="370" width="60" height="30" as="geometry" />
        </mxCell>
        <mxCell id="mzUeTdwMemoc4BiHLvL5-34" value="&lt;pre&gt;export HTML&lt;/pre&gt;" style="text;html=1;strokeColor=none;fillColor=none;align=center;verticalAlign=middle;whiteSpace=wrap;rounded=0;fontStyle=1" vertex="1" parent="1">
          <mxGeometry x="107" y="390" width="60" height="30" as="geometry" />
        </mxCell>
        <mxCell id="mzUeTdwMemoc4BiHLvL5-35" value="&lt;pre&gt;v4&lt;/pre&gt;" style="text;html=1;strokeColor=none;fillColor=none;align=center;verticalAlign=middle;whiteSpace=wrap;rounded=0;fontStyle=1" vertex="1" parent="1">
          <mxGeometry x="388" y="158" width="60" height="30" as="geometry" />
        </mxCell>
        <mxCell id="mzUeTdwMemoc4BiHLvL5-47" style="edgeStyle=orthogonalEdgeStyle;rounded=0;orthogonalLoop=1;jettySize=auto;html=1;exitX=0.25;exitY=1;exitDx=0;exitDy=0;entryX=0.5;entryY=0;entryDx=0;entryDy=0;" edge="1" parent="1" source="mzUeTdwMemoc4BiHLvL5-42" target="mzUeTdwMemoc4BiHLvL5-46">
          <mxGeometry relative="1" as="geometry">
            <Array as="points">
              <mxPoint x="427" y="560" />
              <mxPoint x="388" y="560" />
            </Array>
          </mxGeometry>
        </mxCell>
        <mxCell id="mzUeTdwMemoc4BiHLvL5-42" value="" style="rounded=0;whiteSpace=wrap;html=1;fillColor=none;strokeWidth=2;" vertex="1" parent="1">
          <mxGeometry x="346" y="470" width="324" height="80" as="geometry" />
        </mxCell>
        <mxCell id="mzUeTdwMemoc4BiHLvL5-36" value="Dark" style="rounded=0;whiteSpace=wrap;html=1;fontSize=14;" vertex="1" parent="1">
          <mxGeometry x="349" y="510" width="82" height="30" as="geometry" />
        </mxCell>
        <mxCell id="mzUeTdwMemoc4BiHLvL5-37" value="Light" style="rounded=0;whiteSpace=wrap;html=1;fontSize=14;" vertex="1" parent="1">
          <mxGeometry x="441" y="510" width="82" height="30" as="geometry" />
        </mxCell>
        <mxCell id="mzUeTdwMemoc4BiHLvL5-38" value="Darcula" style="rounded=0;whiteSpace=wrap;html=1;fontSize=14;" vertex="1" parent="1">
          <mxGeometry x="531" y="510" width="82" height="30" as="geometry" />
        </mxCell>
        <mxCell id="mzUeTdwMemoc4BiHLvL5-39" value="Solarized" style="rounded=0;whiteSpace=wrap;html=1;fontSize=14;" vertex="1" parent="1">
          <mxGeometry x="349" y="477" width="82" height="30" as="geometry" />
        </mxCell>
        <mxCell id="mzUeTdwMemoc4BiHLvL5-40" value="Horizon" style="rounded=0;whiteSpace=wrap;html=1;fontSize=14;" vertex="1" parent="1">
          <mxGeometry x="441" y="477" width="82" height="30" as="geometry" />
        </mxCell>
        <mxCell id="mzUeTdwMemoc4BiHLvL5-41" value="Material Darker" style="rounded=0;whiteSpace=wrap;html=1;fontSize=13;" vertex="1" parent="1">
          <mxGeometry x="531" y="477" width="82" height="30" as="geometry" />
        </mxCell>
        <mxCell id="mzUeTdwMemoc4BiHLvL5-43" value="Themes" style="text;html=1;strokeColor=none;fillColor=none;align=center;verticalAlign=middle;whiteSpace=wrap;rounded=0;fontStyle=1" vertex="1" parent="1">
          <mxGeometry x="616" y="495" width="60" height="30" as="geometry" />
        </mxCell>
        <mxCell id="mzUeTdwMemoc4BiHLvL5-49" style="edgeStyle=orthogonalEdgeStyle;rounded=0;orthogonalLoop=1;jettySize=auto;html=1;exitX=1;exitY=0.5;exitDx=0;exitDy=0;entryX=0;entryY=0.5;entryDx=0;entryDy=0;" edge="1" parent="1" source="mzUeTdwMemoc4BiHLvL5-46" target="mzUeTdwMemoc4BiHLvL5-48">
          <mxGeometry relative="1" as="geometry" />
        </mxCell>
        <mxCell id="mzUeTdwMemoc4BiHLvL5-46" value="Apply" style="ellipse;whiteSpace=wrap;html=1;aspect=fixed;fontStyle=2" vertex="1" parent="1">
          <mxGeometry x="365" y="578" width="45" height="45" as="geometry" />
        </mxCell>
        <mxCell id="mzUeTdwMemoc4BiHLvL5-52" style="edgeStyle=orthogonalEdgeStyle;rounded=0;orthogonalLoop=1;jettySize=auto;html=1;exitX=1;exitY=0.5;exitDx=0;exitDy=0;entryX=0;entryY=0.75;entryDx=0;entryDy=0;" edge="1" parent="1" source="mzUeTdwMemoc4BiHLvL5-48" target="mzUeTdwMemoc4BiHLvL5-50">
          <mxGeometry relative="1" as="geometry" />
        </mxCell>
        <mxCell id="mzUeTdwMemoc4BiHLvL5-53" style="edgeStyle=orthogonalEdgeStyle;rounded=0;orthogonalLoop=1;jettySize=auto;html=1;exitX=1;exitY=0.5;exitDx=0;exitDy=0;entryX=0;entryY=0.75;entryDx=0;entryDy=0;" edge="1" parent="1" source="mzUeTdwMemoc4BiHLvL5-48" target="mzUeTdwMemoc4BiHLvL5-51">
          <mxGeometry relative="1" as="geometry" />
        </mxCell>
        <mxCell id="mzUeTdwMemoc4BiHLvL5-48" value="589746&lt;span style=&quot;font-weight: normal;&quot;&gt; HTML Files&lt;/span&gt;" style="rounded=0;whiteSpace=wrap;html=1;fontSize=14;fontStyle=1" vertex="1" parent="1">
          <mxGeometry x="457" y="578" width="102" height="44.5" as="geometry" />
        </mxCell>
        <mxCell id="mzUeTdwMemoc4BiHLvL5-50" value="&lt;span style=&quot;font-size: 14px;&quot;&gt;Accessibility Scan Results&lt;br&gt;&lt;b&gt;238675580&lt;/b&gt; &lt;br&gt;(errors + warnings + notices)&lt;br&gt;&lt;/span&gt;" style="rounded=0;whiteSpace=wrap;html=1;fontSize=16;fontStyle=0" vertex="1" parent="1">
          <mxGeometry x="693" y="480" width="120" height="101" as="geometry" />
        </mxCell>
        <mxCell id="mzUeTdwMemoc4BiHLvL5-51" value="&lt;span style=&quot;font-size: 14px;&quot;&gt;Headings and Tables&lt;/span&gt;" style="rounded=0;whiteSpace=wrap;html=1;fontSize=16;fontStyle=0" vertex="1" parent="1">
          <mxGeometry x="693" y="587" width="120" height="60" as="geometry" />
        </mxCell>
        <mxCell id="mzUeTdwMemoc4BiHLvL5-56" value="&lt;b&gt;&lt;i&gt;aXe&lt;br&gt;htmlcs&lt;/i&gt;&lt;/b&gt;" style="text;html=1;align=center;verticalAlign=middle;whiteSpace=wrap;rounded=0;fillColor=#f5f5f5;fontColor=#333333;strokeColor=#666666;" vertex="1" parent="1">
          <mxGeometry x="564" y="557" width="60" height="30" as="geometry" />
        </mxCell>
      </root>
    </mxGraphModel>
  </diagram>
</mxfile>
